<?xml version="1.0" encoding="UTF-8" standalone="no"?>
<!-- Created with Inkscape (http://www.inkscape.org/) -->

<svg
   xmlns:dc="http://purl.org/dc/elements/1.1/"
   xmlns:cc="http://creativecommons.org/ns#"
   xmlns:rdf="http://www.w3.org/1999/02/22-rdf-syntax-ns#"
   xmlns:svg="http://www.w3.org/2000/svg"
   xmlns="http://www.w3.org/2000/svg"
   xmlns:xlink="http://www.w3.org/1999/xlink"
   xmlns:sodipodi="http://sodipodi.sourceforge.net/DTD/sodipodi-0.dtd"
   xmlns:inkscape="http://www.inkscape.org/namespaces/inkscape"
   width="800px"
   height="600px"
   id="svg3015"
   version="1.1"
   inkscape:version="0.48.4 r9939"
   sodipodi:docname="rubiks_cube_singlecube_black.svg">
  <defs
     id="defs3017">
    <linearGradient
       id="linearGradient3976">
      <stop
         id="stop3978"
         offset="0"
         style="stop-color:#2d2d2d;stop-opacity:1" />
      <stop
         id="stop3980"
         offset="1"
         style="stop-color:#050505;stop-opacity:1" />
    </linearGradient>
    <linearGradient
       id="linearGradient3970">
      <stop
         id="stop3972"
         offset="0"
         style="stop-color:#2d2d2d;stop-opacity:1" />
      <stop
         id="stop3974"
         offset="1"
         style="stop-color:#141414;stop-opacity:1" />
    </linearGradient>
    <linearGradient
       id="linearGradient3964">
      <stop
         id="stop3966"
         offset="0"
         style="stop-color:#141414;stop-opacity:1" />
      <stop
         id="stop3968"
         offset="1"
         style="stop-color:#050505;stop-opacity:1" />
    </linearGradient>
    <linearGradient
       id="linearGradient3958">
      <stop
         id="stop3960"
         offset="0"
         style="stop-color:#2d2d2d;stop-opacity:1" />
      <stop
         id="stop3962"
         offset="1"
         style="stop-color:#050505;stop-opacity:1" />
    </linearGradient>
    <linearGradient
       id="linearGradient4957"
       inkscape:collect="always">
      <stop
         id="stop4959"
         offset="0"
         style="stop-color:#e8e8e8;stop-opacity:1" />
      <stop
         id="stop4961"
         offset="1"
         style="stop-color:#646464;stop-opacity:1" />
    </linearGradient>
    <linearGradient
       inkscape:collect="always"
       id="linearGradient4929">
      <stop
         style="stop-color:#e8e8e8;stop-opacity:1"
         offset="0"
         id="stop4931" />
      <stop
         style="stop-color:#3c3c3c;stop-opacity:1"
         offset="1"
         id="stop4933" />
    </linearGradient>
    <linearGradient
       id="linearGradient3941">
      <stop
         style="stop-color:#3c3c3c;stop-opacity:0.99242425;"
         offset="0"
         id="stop3943" />
      <stop
         style="stop-color:#000000;stop-opacity:0.84090906;"
         offset="1"
         id="stop3945" />
    </linearGradient>
    <linearGradient
       id="linearGradient3921">
      <stop
         style="stop-color:#323232;stop-opacity:1;"
         offset="0"
         id="stop3923" />
      <stop
         style="stop-color:#000000;stop-opacity:1;"
         offset="1"
         id="stop3925" />
    </linearGradient>
    <linearGradient
       id="linearGradient3913">
      <stop
         style="stop-color:#2b2b2d;stop-opacity:1;"
         offset="0"
         id="stop3915" />
      <stop
         style="stop-color:#000000;stop-opacity:1;"
         offset="1"
         id="stop3917" />
    </linearGradient>
    <linearGradient
       id="linearGradient3905">
      <stop
         style="stop-color:#282828;stop-opacity:1;"
         offset="0"
         id="stop3907" />
      <stop
         style="stop-color:#000000;stop-opacity:1;"
         offset="1"
         id="stop3909" />
    </linearGradient>
    <inkscape:perspective
       sodipodi:type="inkscape:persp3d"
       inkscape:vp_x="-3.3333333e-06 : 318.33334 : 1"
       inkscape:vp_y="0 : 1000 : 0"
       inkscape:vp_z="806.66663 : 316.66667 : 1"
       inkscape:persp3d-origin="923.33333 : 51.666667 : 1"
       id="perspective3039" />
    <linearGradient
       inkscape:collect="always"
       xlink:href="#linearGradient4929"
       id="linearGradient4935"
       x1="260"
       y1="498"
       x2="536"
       y2="143.00002"
       gradientUnits="userSpaceOnUse" />
    <filter
       inkscape:collect="always"
       id="filter4945">
      <feGaussianBlur
         inkscape:collect="always"
         stdDeviation="8.7651502"
         id="feGaussianBlur4947" />
    </filter>
    <clipPath
       clipPathUnits="userSpaceOnUse"
       id="clipPath3170">
      <path
         sodipodi:nodetypes="ccccccccccccc"
         inkscape:connector-curvature="0"
         id="path3172"
         d="m 580.1794,420.21926 -154.3735,89.12758 c -8.38845,6.09135 -17.69363,6.33963 -27.54308,0.006 L 244.0372,420.31056 c -9.93525,-5.76582 -14.14329,-13.50938 -13.89329,-23.81055 l 0,-178.25 c -0.39027,-12.63692 1.96476,-19.00076 13.99654,-24.06473 l 154.18601,-89.01933 c 8.90507,-5.772844 18.36721,-5.798412 27.34718,-0.0337 l 154.87126,89.41497 c 9.26497,5.04827 13.36965,11.93086 13.36965,23.82779 l 0,177.875 c 0.48697,13.5625 -4.09058,19.73451 -13.73515,23.96925 z"
         style="fill:#ffffff;fill-opacity:1;stroke:#000000;stroke-width:0.60120279;stroke-linecap:butt;stroke-linejoin:miter;stroke-miterlimit:4;stroke-opacity:1;display:inline" />
    </clipPath>
    <clipPath
       clipPathUnits="userSpaceOnUse"
       id="clipPath4229">
      <path
         sodipodi:nodetypes="ccccccccccccc"
         inkscape:connector-curvature="0"
         id="path4231"
         d="m 580.1794,420.21926 -154.3735,89.12758 c -8.38845,6.09135 -17.69363,6.33963 -27.54308,0.006 L 244.0372,420.31056 c -9.93525,-5.76582 -14.14329,-13.50938 -13.89329,-23.81055 l 0,-178.25 c -0.39027,-12.63692 1.96476,-19.00076 13.99654,-24.06473 l 154.18601,-89.01933 c 8.90507,-5.772844 18.36721,-5.798412 27.34718,-0.0337 l 154.87126,89.41497 c 9.26497,5.04827 13.36965,11.93086 13.36965,23.82779 l 0,177.875 c 0.48697,13.5625 -4.09058,19.73451 -13.73515,23.96925 z"
         style="fill:#ffffff;fill-opacity:1;stroke:#000000;stroke-width:0.60120279;stroke-linecap:butt;stroke-linejoin:miter;stroke-miterlimit:4;stroke-opacity:1;display:inline" />
    </clipPath>
    <clipPath
       clipPathUnits="userSpaceOnUse"
       id="clipPath5278">
      <path
         sodipodi:nodetypes="ccccccccccccc"
         inkscape:connector-curvature="0"
         id="path5280"
         d="m 580.1794,420.21926 -154.3735,89.12758 c -8.38845,6.09135 -17.69363,6.33963 -27.54308,0.006 L 244.0372,420.31056 c -9.93525,-5.76582 -14.14329,-13.50938 -13.89329,-23.81055 l 0,-178.25 c -0.39027,-12.63692 1.96476,-19.00076 13.99654,-24.06473 l 154.18601,-89.01933 c 8.90507,-5.772844 18.36721,-5.798412 27.34718,-0.0337 l 154.87126,89.41497 c 9.26497,5.04827 13.36965,11.93086 13.36965,23.82779 l 0,177.875 c 0.48697,13.5625 -4.09058,19.73451 -13.73515,23.96925 z"
         style="fill:#ffffff;fill-opacity:1;stroke:#000000;stroke-width:0.60120279;stroke-linecap:butt;stroke-linejoin:miter;stroke-miterlimit:4;stroke-opacity:1;display:inline" />
    </clipPath>
    <linearGradient
       inkscape:collect="always"
       xlink:href="#linearGradient4957"
       id="linearGradient5382"
       gradientUnits="userSpaceOnUse"
       x1="260"
       y1="498"
       x2="538.95496"
       y2="136.10507" />
    <linearGradient
       inkscape:collect="always"
       xlink:href="#linearGradient3970"
       id="linearGradient5386"
       gradientUnits="userSpaceOnUse"
       x1="402.3013"
       y1="443.258"
       x2="424.33188"
       y2="443.258"
       gradientTransform="matrix(0.9740381,0,0,0.9740381,10.557783,7.9812126)" />
    <linearGradient
       inkscape:collect="always"
       xlink:href="#linearGradient3964"
       id="linearGradient5388"
       gradientUnits="userSpaceOnUse"
       x1="542.5882"
       y1="247.15019"
       x2="528.96893"
       y2="223.56096"
       gradientTransform="matrix(0.9740381,0,0,0.9740381,10.557783,7.9812126)" />
    <linearGradient
       inkscape:collect="always"
       xlink:href="#linearGradient3958"
       id="linearGradient5390"
       gradientUnits="userSpaceOnUse"
       x1="247.49916"
       y1="219.24712"
       x2="256.89624"
       y2="202.9709"
       gradientTransform="matrix(0.9740381,0,0,0.9740381,10.557783,7.9812126)" />
    <radialGradient
       inkscape:collect="always"
       xlink:href="#linearGradient3976"
       id="radialGradient3982"
       gradientUnits="userSpaceOnUse"
       gradientTransform="matrix(2.3027705,-0.75417004,0.69170948,2.1193977,-730.58252,-64.93809)"
       cx="394.22739"
       cy="319.82144"
       fx="394.22739"
       fy="319.82144"
       r="16.683687" />
    <filter
       inkscape:collect="always"
       id="filter3988">
      <feGaussianBlur
         inkscape:collect="always"
         stdDeviation="1.1519257"
         id="feGaussianBlur3990" />
    </filter>
    <clipPath
       clipPathUnits="userSpaceOnUse"
       id="clipPath4177">
      <path
         sodipodi:nodetypes="ccccccccccccc"
         inkscape:connector-curvature="0"
         id="path4179"
         d="m 575.67462,417.29078 -150.36567,86.81366 c -8.17067,5.93321 -17.23427,6.17504 -26.82801,0.006 L 248.25931,417.37971 c -9.67731,-5.61613 -13.7761,-13.15865 -13.53259,-23.19238 l 0,-173.62229 c -0.38014,-12.30884 1.91375,-18.50747 13.63316,-23.43997 l 150.18305,-86.70822 c 8.67388,-5.62297 17.89036,-5.64787 26.63719,-0.0328 l 150.85051,87.09359 c 9.02444,4.9172 13.02255,11.62111 13.02255,23.20917 l 0,173.25703 c 0.47433,13.21039 -3.98438,19.22216 -13.37856,23.34696 z"
         style="fill:#ffffff;fill-opacity:1;stroke:#000000;stroke-width:0.58559442;stroke-linecap:butt;stroke-linejoin:miter;stroke-miterlimit:4;stroke-opacity:1;display:inline" />
    </clipPath>
  </defs>
  <sodipodi:namedview
     id="base"
     pagecolor="#ffffff"
     bordercolor="#666666"
     borderopacity="1.0"
     inkscape:pageopacity="0.0"
     inkscape:pageshadow="2"
     inkscape:zoom="0.70710678"
     inkscape:cx="232.65128"
     inkscape:cy="284.04133"
     inkscape:current-layer="layer4"
     inkscape:document-units="px"
     showgrid="false"
     showguides="false"
     inkscape:guide-bbox="true"
     inkscape:object-nodes="true"
     inkscape:snap-object-midpoints="true"
     inkscape:object-paths="true"
     inkscape:snap-global="false"
     inkscape:window-width="1920"
     inkscape:window-height="1060"
     inkscape:window-x="0"
     inkscape:window-y="20"
     inkscape:window-maximized="0">
    <sodipodi:guide
       orientation="1,0"
       position="230.14391,397.73381"
       id="guide3841" />
    <sodipodi:guide
       orientation="0.5,0.8660254"
       position="412.02923,82.699192"
       id="guide3843" />
    <sodipodi:guide
       orientation="-0.5,0.8660254"
       position="540.14752,350.79548"
       id="guide3887" />
    <sodipodi:guide
       orientation="-0.5,0.8660254"
       position="535.2293,379.90706"
       id="guide3889" />
    <sodipodi:guide
       orientation="0.5,0.8660254"
       position="361.08295,306.18646"
       id="guide3891" />
    <sodipodi:guide
       orientation="0.5,0.8660254"
       position="376.74243,329.32293"
       id="guide3893" />
    <sodipodi:guide
       orientation="1,0"
       position="398.09654,241.00556"
       id="guide3895" />
    <sodipodi:guide
       orientation="1,0"
       position="425.86877,164.99158"
       id="guide3897" />
  </sodipodi:namedview>
  <metadata
     id="metadata3020">
    <rdf:RDF>
      <cc:Work
         rdf:about="">
        <dc:format>image/svg+xml</dc:format>
        <dc:type
           rdf:resource="http://purl.org/dc/dcmitype/StillImage" />
        <dc:title />
      </cc:Work>
    </rdf:RDF>
  </metadata>
  <g
     inkscape:groupmode="layer"
     id="layer4"
     inkscape:label="final clip layer"
     style="display:none">
    <g
       style="display:inline"
       id="g4106"
       clip-path="url(#clipPath4177)">
      <g
         id="g4064"
         style="display:inline">
        <path
           style="fill:#2d2d2d;fill-opacity:1;stroke:none"
           d="M 234.72672,204.99619 411.8446,307.14243 411.88999,511.85191 234.72676,409.56667 z"
           id="path4048"
           inkscape:connector-curvature="0"
           sodipodi:nodetypes="ccccc" />
        <path
           style="fill:#141414;fill-opacity:1;stroke:none"
           d="m 411.8446,307.14243 177.20858,-102.14624 0,203.96404 -177.68842,102.58846 z"
           id="path4050"
           inkscape:connector-curvature="0"
           sodipodi:nodetypes="ccccc" />
        <path
           style="fill:#050505;fill-opacity:1;stroke:none"
           d="M 411.88995,102.71095 589.05318,204.99619 411.8446,307.14243 234.72672,204.99619 z"
           id="path4052"
           inkscape:connector-curvature="0"
           sodipodi:nodetypes="ccccc" />
        <path
           style="fill:url(#linearGradient5390);fill-opacity:1;stroke:none"
           d="m 148.23652,139.25454 -13.57152,23.50657 263.65398,152.22069 13.52562,-7.83937 0.19096,-15.58345 z"
           id="path4054"
           inkscape:connector-curvature="0" />
        <path
           sodipodi:nodetypes="cccccc"
           style="fill:url(#linearGradient5388);fill-opacity:1;stroke:none"
           d="m 665.05204,176.60146 -13.47606,-23.3412 -240.24753,138.56389 -0.0142,15.49506 14.05592,7.66263 z"
           id="path4056"
           inkscape:connector-curvature="0" />
        <path
           sodipodi:nodetypes="cccccc"
           style="fill:url(#linearGradient5386);fill-opacity:1;stroke:none"
           d="m 398.31898,560.26245 27.05121,0 0,-245.28061 -13.52559,-8.45813 -13.52562,7.83937 z"
           id="path4058"
           inkscape:connector-curvature="0" />
        <path
           style="fill:url(#radialGradient3982);fill-opacity:1;stroke:none;filter:url(#filter3988)"
           d="m 412.17872,291.13622 c -5.46864,-0.0939 -15.57476,4.55529 -16.57626,12.51332 -1.17696,9.35217 5.57051,18.97879 16.38362,18.85062 9.9779,-0.11827 17.91031,-6.46703 15.37396,-21.10393 -1.06089,-6.12225 -9.89705,-10.16929 -15.18132,-10.26001 z"
           id="path4060"
           inkscape:connector-curvature="0"
           sodipodi:nodetypes="sssss"
           transform="matrix(0.75080103,0,0,0.74320556,104.00525,78.640016)" />
        <path
           style="fill:url(#linearGradient5382);fill-opacity:1;stroke:none;display:inline;filter:url(#filter4945)"
           d="m 411.9375,24.9375 c -6.29134,0.01013 -12.56813,1.990787 -18.65625,5.9375 l -210.8125,121.71875 c -16.45151,6.92416 -19.65863,15.62732 -19.125,32.90625 l 0,243.71875 c -0.34183,14.08518 5.41516,24.67868 19,32.5625 l 210.875,121.75 c 13.46752,8.6604 26.1864,8.32892 37.65625,0 l 211.0625,-121.875 c 13.18738,-5.79032 19.44711,-14.23674 18.78125,-32.78125 l 0,-243.21875 c 0,-16.26711 -5.61291,-25.65981 -18.28125,-32.5625 L 430.6875,30.8125 c -6.13932,-3.941153 -12.45866,-5.88513 -18.75,-5.875 z m 0.0312,67.53125 c 4.78695,-0.0077 9.57872,1.501256 14.25,4.5 L 587.34375,190 c 9.63907,5.25211 13.90625,12.40395 13.90625,24.78125 l 0,185.0625 c 0.50663,14.11012 -4.24725,20.53176 -14.28125,24.9375 L 426.375,517.5 c -8.72716,6.3373 -18.40908,6.5896 -28.65625,0 L 237.25,424.875 c -10.33641,-5.99863 -14.6976,-14.06414 -14.4375,-24.78125 l 0,-185.4375 c -0.40603,-13.14717 2.04491,-19.76281 14.5625,-25.03125 L 397.78125,97 c 4.63232,-3.002969 9.40055,-4.523544 14.1875,-4.53125 z"
           id="path4062"
           inkscape:connector-curvature="0"
           transform="matrix(0.98887961,0,0,0.98887961,4.4426575,3.41863)" />
      </g>
      <g
         id="g4089"
         style="display:inline">
        <rect
           style="fill:#eb0000;fill-opacity:1;stroke:none;display:inline"
           id="rect4083"
           width="173.09647"
           height="173.43274"
           x="286.84268"
           y="85.01223"
           transform="matrix(0.8660254,0.5,0,1,0,0)"
           rx="19.514553"
           ry="19.514553"
           inkscape:transform-center-x="88.478581"
           inkscape:transform-center-y="51.281625" />
        <rect
           inkscape:transform-center-y="51.281676"
           inkscape:transform-center-x="-88.478572"
           ry="19.514553"
           rx="19.514553"
           transform="matrix(-0.8660254,0.5,0,1,0,0)"
           y="560.56946"
           x="-664.27167"
           height="173.43274"
           width="173.09647"
           id="rect4085"
           style="fill:#00bd00;fill-opacity:1;stroke:none;display:inline" />
        <rect
           inkscape:transform-center-y="-14.986016"
           inkscape:transform-center-x="1.0309663"
           ry="19.514553"
           rx="19.514553"
           transform="matrix(-0.8660254,0.5,-0.8660254,-0.5,0,0)"
           y="-529.44781"
           x="-119.42632"
           height="173.43274"
           width="173.09647"
           id="rect4087"
           style="fill:#fafa00;fill-opacity:1;stroke:none;display:inline" />
      </g>
    </g>
  </g>
  <g
     id="layer1"
     inkscape:label="clip layer"
     inkscape:groupmode="layer"
     style="display:none">
    <path
       style="fill:#ffffff;fill-opacity:1;stroke:#000000;stroke-width:0.58559442;stroke-linecap:butt;stroke-linejoin:miter;stroke-miterlimit:4;stroke-opacity:1"
       d="m 575.67462,417.29078 -150.36567,86.81366 c -8.17067,5.93321 -17.23427,6.17504 -26.82801,0.006 L 248.25931,417.37971 c -9.67731,-5.61613 -13.7761,-13.15865 -13.53259,-23.19238 l 0,-173.62229 c -0.38014,-12.30884 1.91375,-18.50747 13.63316,-23.43997 l 150.18305,-86.70822 c 8.67388,-5.62297 17.89036,-5.64787 26.63719,-0.0328 l 150.85051,87.09359 c 9.02444,4.9172 13.02255,11.62111 13.02255,23.20917 l 0,173.25703 c 0.47433,13.21039 -3.98438,19.22216 -13.37856,23.34696 z"
       id="path3071"
       inkscape:connector-curvature="0"
       sodipodi:nodetypes="ccccccccccccc" />
  </g>
  <g
     inkscape:groupmode="layer"
     id="layer2"
     inkscape:label="base layer"
     style="display:none" />
  <g
     style="display:inline"
     inkscape:label="base layer copy"
     id="g3058"
     inkscape:groupmode="layer">
    <path
       sodipodi:nodetypes="ccccc"
       inkscape:connector-curvature="0"
       id="path3060"
       d="M 234.72672,204.99619 411.8446,307.14243 411.88999,511.85191 234.72676,409.56667 z"
       style="fill:#2d2d2d;fill-opacity:1;stroke:none" />
    <path
       sodipodi:nodetypes="ccccc"
       inkscape:connector-curvature="0"
       id="path3062"
       d="m 411.8446,307.14243 177.20858,-102.14624 0,203.96404 -177.68842,102.58846 z"
       style="fill:#141414;fill-opacity:1;stroke:none" />
    <path
       sodipodi:nodetypes="ccccc"
       inkscape:connector-curvature="0"
       id="path3064"
       d="M 411.88995,102.71095 589.05318,204.99619 411.8446,307.14243 234.72672,204.99619 z"
       style="fill:#050505;fill-opacity:1;stroke:none" />
    <path
       inkscape:connector-curvature="0"
       id="path3066"
       d="m 148.23652,139.25454 -13.57152,23.50657 263.65398,152.22069 13.52562,-7.83937 0.19096,-15.58345 z"
       style="fill:url(#linearGradient5390);fill-opacity:1;stroke:none" />
    <path
       inkscape:connector-curvature="0"
       id="path3068"
       d="m 665.05204,176.60146 -13.47606,-23.3412 -240.24753,138.56389 -0.0142,15.49506 14.05592,7.66263 z"
       style="fill:url(#linearGradient5388);fill-opacity:1;stroke:none"
       sodipodi:nodetypes="cccccc" />
    <path
       inkscape:connector-curvature="0"
       id="path3070"
       d="m 398.31898,560.26245 27.05121,0 0,-245.28061 -13.52559,-8.45813 -13.52562,7.83937 z"
       style="fill:url(#linearGradient5386);fill-opacity:1;stroke:none"
       sodipodi:nodetypes="cccccc" />
    <path
       transform="matrix(0.75080103,0,0,0.74320556,104.00525,78.640016)"
       sodipodi:nodetypes="sssss"
       inkscape:connector-curvature="0"
       id="path3072"
       d="m 412.17872,291.13622 c -5.46864,-0.0939 -15.57476,4.55529 -16.57626,12.51332 -1.17696,9.35217 5.57051,18.97879 16.38362,18.85062 9.9779,-0.11827 17.91031,-6.46703 15.37396,-21.10393 -1.06089,-6.12225 -9.89705,-10.16929 -15.18132,-10.26001 z"
       style="fill:url(#radialGradient3982);fill-opacity:1;stroke:none;filter:url(#filter3988)" />
    <path
       transform="matrix(0.98887961,0,0,0.98887961,4.4426575,3.41863)"
       inkscape:connector-curvature="0"
       id="path3074"
       d="m 411.9375,24.9375 c -6.29134,0.01013 -12.56813,1.990787 -18.65625,5.9375 l -210.8125,121.71875 c -16.45151,6.92416 -19.65863,15.62732 -19.125,32.90625 l 0,243.71875 c -0.34183,14.08518 5.41516,24.67868 19,32.5625 l 210.875,121.75 c 13.46752,8.6604 26.1864,8.32892 37.65625,0 l 211.0625,-121.875 c 13.18738,-5.79032 19.44711,-14.23674 18.78125,-32.78125 l 0,-243.21875 c 0,-16.26711 -5.61291,-25.65981 -18.28125,-32.5625 L 430.6875,30.8125 c -6.13932,-3.941153 -12.45866,-5.88513 -18.75,-5.875 z m 0.0312,67.53125 c 4.78695,-0.0077 9.57872,1.501256 14.25,4.5 L 587.34375,190 c 9.63907,5.25211 13.90625,12.40395 13.90625,24.78125 l 0,185.0625 c 0.50663,14.11012 -4.24725,20.53176 -14.28125,24.9375 L 426.375,517.5 c -8.72716,6.3373 -18.40908,6.5896 -28.65625,0 L 237.25,424.875 c -10.33641,-5.99863 -14.6976,-14.06414 -14.4375,-24.78125 l 0,-185.4375 c -0.40603,-13.14717 2.04491,-19.76281 14.5625,-25.03125 L 397.78125,97 c 4.63232,-3.002969 9.40055,-4.523544 14.1875,-4.53125 z"
       style="fill:url(#linearGradient5382);fill-opacity:1;stroke:none;display:inline;filter:url(#filter4945)" />
  </g>
  <g
     inkscape:groupmode="layer"
     id="layer3"
     inkscape:label="color layer"
     style="display:none" />
  <g
     style="display:inline"
     inkscape:label="color layer copy"
     id="g3050"
     inkscape:groupmode="layer">
    <rect
       inkscape:transform-center-y="51.281625"
       inkscape:transform-center-x="88.478581"
       ry="19.514553"
       rx="19.514553"
       transform="matrix(0.8660254,0.5,0,1,0,0)"
       y="85.01223"
       x="286.84268"
       height="173.43274"
       width="173.09647"
       id="rect3052"
       style="fill:#eb0000;fill-opacity:1;stroke:none;display:inline" />
    <rect
       style="fill:#00bd00;fill-opacity:1;stroke:none;display:inline"
       id="rect3054"
       width="173.09647"
       height="173.43274"
       x="-664.27167"
       y="560.56946"
       transform="matrix(-0.8660254,0.5,0,1,0,0)"
       rx="19.514553"
       ry="19.514553"
       inkscape:transform-center-x="-88.478572"
       inkscape:transform-center-y="51.281676" />
    <rect
       style="fill:#fafa00;fill-opacity:1;stroke:none;display:inline"
       id="rect3056"
       width="173.09647"
       height="173.43274"
       x="-119.42632"
       y="-529.44781"
       transform="matrix(-0.8660254,0.5,-0.8660254,-0.5,0,0)"
       rx="19.514553"
       ry="19.514553"
       inkscape:transform-center-x="1.0309663"
       inkscape:transform-center-y="-14.986016" />
  </g>
</svg>
